P2
# CREATOR: GIMP PNM Filter Version 1.1
5 2
255
200 102 0 255 0
0 102 255 255 0
